<?xml version="1.0" standalone="no"?>
<!DOCTYPE svg PUBLIC "-//W3C//DTD SVG 20010904//EN"
 "http://www.w3.org/TR/2001/REC-SVG-20010904/DTD/svg10.dtd">
<svg version="1.0" xmlns="http://www.w3.org/2000/svg"
 width="500.000000pt" height="500.000000pt" viewBox="0 0 500.000000 500.000000"
 preserveAspectRatio="xMidYMid meet">
<metadata>
Created by potrace 1.14, written by Peter Selinger 2001-2017
</metadata>
<g transform="translate(0.000000,500.000000) scale(0.100000,-0.100000)"
fill="#000000" stroke="none">
<path d="M1664 4675 c-21 -7 -74 -21 -118 -30 -46 -10 -102 -31 -136 -51 -241
-141 -330 -547 -184 -837 53 -105 108 -175 269 -345 145 -152 134 -141 181
-197 70 -85 169 -259 158 -277 -3 -4 -1 -8 3 -8 5 0 15 -21 22 -47 8 -27 15
-52 17 -58 12 -41 24 -104 29 -155 2 -19 4 -35 5 -35 1 0 2 -33 3 -73 1 -39 0
-72 -2 -72 -2 0 -33 19 -69 41 -126 80 -313 153 -443 175 -67 11 -240 7 -256
-6 -2 -2 -6 -3 -10 -5 -25 -6 -62 -25 -74 -37 -8 -8 -33 -28 -57 -45 -53 -39
-71 -61 -110 -139 -17 -34 -39 -65 -49 -69 -10 -4 -49 -18 -88 -32 -98 -35
-184 -102 -185 -144 0 -9 -18 -30 -39 -47 -64 -51 -131 -147 -159 -225 -22
-61 -26 -90 -26 -187 0 -131 16 -205 68 -315 66 -140 147 -216 270 -254 127
-39 214 -22 292 58 l37 37 85 -34 c81 -33 432 -126 440 -117 3 2 12 0 21 -4
52 -28 293 -31 386 -5 59 17 373 183 405 214 62 62 85 165 68 297 -12 87 -79
286 -119 355 -31 52 -50 92 -55 115 -5 26 -75 131 -123 183 l-49 55 3 130 c1
72 -1 162 -7 200 -9 74 -54 268 -68 294 -5 9 -30 61 -56 116 -26 55 -71 133
-102 174 -49 67 -83 104 -237 266 -88 93 -120 129 -150 170 -17 22 -32 42 -35
45 -15 14 -69 131 -81 175 -23 83 -18 237 10 325 14 41 31 81 38 88 7 7 13 17
13 22 0 15 64 77 99 95 71 36 90 37 121 5 16 -17 33 -30 37 -31 4 -1 19 -2 33
-4 113 -12 156 -32 221 -101 96 -104 127 -167 302 -619 70 -182 91 -240 89
-247 -1 -5 3 -8 8 -8 5 0 9 -3 8 -7 -2 -5 12 -49 30 -99 25 -67 43 -101 70
-126 31 -30 50 -69 113 -234 42 -110 80 -208 84 -219 5 -11 9 -22 9 -25 1 -3
8 -16 16 -30 7 -14 12 -25 11 -25 -3 0 9 -33 30 -84 11 -24 19 -48 19 -53 0
-5 8 -28 19 -51 10 -23 44 -109 75 -192 32 -82 62 -159 67 -170 5 -11 38 -96
74 -189 53 -140 63 -175 59 -210 -4 -33 3 -60 39 -146 30 -71 51 -108 65 -115
12 -5 22 -13 22 -17 0 -5 7 -8 15 -8 8 0 15 -4 15 -10 0 -5 7 -10 15 -10 8 0
15 -4 15 -10 0 -5 5 -10 10 -10 23 0 47 -36 46 -69 -1 -33 -3 -35 -74 -60 -40
-14 -74 -33 -77 -41 -12 -44 -14 -89 -2 -98 20 -16 271 -112 293 -112 12 0 24
3 28 7 3 4 12 8 19 9 14 3 203 71 232 83 11 5 70 28 130 50 241 87 361 132
375 141 11 7 12 17 1 63 -8 29 -18 54 -25 55 -26 2 -59 12 -72 23 -8 6 -14 9
-14 5 0 -3 -12 -1 -27 5 -16 6 -35 13 -43 15 -8 2 -43 13 -78 25 l-63 21 -51
-21 c-28 -12 -56 -21 -62 -21 -6 0 -23 -7 -38 -14 -25 -13 -29 -13 -46 7 -29
36 -81 59 -136 62 -43 1 -129 30 -185 63 -7 4 -34 54 -59 111 -35 80 -52 108
-76 122 -33 19 -39 30 -85 157 -39 106 -308 797 -327 839 -8 17 -14 33 -14 36
0 3 -5 18 -12 34 -6 15 -12 31 -13 36 -2 4 -4 9 -5 12 -1 3 -3 8 -4 13 -1 4
-7 16 -13 27 -6 11 -12 25 -13 30 -3 11 -17 51 -27 75 -3 8 -7 20 -9 25 -1 6
-13 37 -26 70 -19 49 -22 67 -14 97 10 41 6 54 -121 383 -41 105 -76 195 -77
200 -2 6 -8 21 -13 35 -40 95 -85 207 -87 215 -12 42 -97 225 -106 225 -3 0
-13 15 -22 33 -22 46 -118 148 -188 201 -83 61 -155 87 -281 101 -14 1 -44 -3
-65 -10z"/>
<path d="M4335 1174 c-11 -12 -14 -26 -10 -53 15 -88 16 -114 4 -121 -17 -11
-68 6 -94 30 -24 22 -45 12 -45 -23 0 -68 130 -206 190 -201 8 0 25 2 37 2 34
3 78 47 92 91 13 45 46 75 69 62 17 -9 50 -3 70 12 16 13 7 56 -16 77 -57 53
-129 101 -177 119 -67 25 -98 26 -120 5z"/>
<path d="M3902 1111 c-7 -4 -10 -24 -8 -48 4 -47 -13 -63 -32 -32 -16 25 -32
24 -32 -1 0 -31 58 -90 89 -90 32 0 42 7 60 43 8 15 20 26 27 23 7 -3 20 1 30
8 16 12 15 15 -12 42 -40 41 -101 68 -122 55z"/>
<path d="M3847 686 c-8 -9 -14 -26 -12 -38 3 -12 7 -40 11 -63 3 -22 8 -42 10
-44 2 -2 -1 -10 -7 -18 -18 -21 -58 -15 -91 12 -30 25 -47 31 -49 18 0 -5 -2
-17 -4 -28 -13 -66 124 -209 198 -207 66 2 103 39 131 130 7 22 11 23 80 26
108 3 41 116 -117 198 -55 28 -129 35 -150 14z"/>
<path d="M4457 658 c-2 -7 -2 -27 0 -44 7 -40 -13 -54 -34 -24 -15 21 -17 21
-26 5 -11 -20 12 -56 56 -89 22 -16 31 -18 51 -8 14 6 32 25 41 42 12 24 21
30 36 25 28 -9 36 21 13 46 -40 45 -127 74 -137 47z"/>
</g>
</svg>
